<?xml version="1.0" standalone="no"?>
<!DOCTYPE svg PUBLIC "-//W3C//DTD SVG 20010904//EN"
 "http://www.w3.org/TR/2001/REC-SVG-20010904/DTD/svg10.dtd">
<svg version="1.0" xmlns="http://www.w3.org/2000/svg"
 width="500.000000pt" height="500.000000pt" viewBox="0 0 500.000000 500.000000"
 preserveAspectRatio="xMidYMid meet">
<metadata>
Created by potrace 1.11, written by Peter Selinger 2001-2013
</metadata>
<g transform="translate(0.000000,500.000000) scale(0.100000,-0.100000)"
fill="#000000" stroke="none">
<path d="M2305 4994 c-370 -38 -632 -112 -932 -263 -553 -278 -980 -750 -1209
-1336 -54 -139 -115 -374 -140 -540 -22 -148 -26 -532 -6 -670 58 -405 188
-752 402 -1072 393 -590 1014 -981 1725 -1089 168 -26 542 -26 710 0 898 136
1639 723 1973 1562 117 293 167 566 167 914 0 348 -50 621 -167 914 -333 837
-1081 1430 -1968 1561 -110 16 -464 28 -555 19z m1465 -1274 c28 -15 42 -72
41 -173 -1 -156 -50 -352 -105 -422 -30 -37 -67 -41 -472 -51 l-310 -7 17 -86
18 -87 -98 -564 c-53 -311 -96 -567 -95 -569 2 -2 71 2 154 9 140 12 151 12
170 -5 44 -40 80 -195 80 -342 0 -121 -11 -148 -72 -179 -175 -89 -871 -314
-970 -314 -88 0 -337 358 -407 584 -27 89 -27 118 9 326 86 496 218 1014 277
1089 16 20 47 59 68 86 l38 50 -378 6 c-373 6 -378 6 -396 27 -78 97 -33 514
61 559 32 15 230 29 600 43 702 27 1736 38 1770 20z"/>
</g>
</svg>
